<svg width="30" height="30" viewBox="0 0 30 30" fill="none" xmlns="http://www.w3.org/2000/svg">
<path d="M22.7486 15.0524H16.0948C15.6746 15.0524 15.334 14.7118 15.334 14.2915V8.58357C15.334 8.16333 15.6746 7.82272 16.0948 7.82272H22.7485C23.1687 7.82272 23.5093 8.16333 23.5093 8.58357V14.2915C23.5094 14.7118 23.1687 15.0524 22.7486 15.0524Z" fill="#944727"/>
<path d="M7.29013 30C7.10445 30 6.91566 29.9645 6.73331 29.8893C5.98618 29.5815 5.63004 28.7262 5.93784 27.9791L8.48106 21.8064L8.67348 17.2088C8.70723 16.4015 9.3878 15.7733 10.1965 15.8081C11.0039 15.8419 11.631 16.5238 11.5972 17.3312L11.394 22.1864C11.3869 22.3569 11.35 22.5248 11.285 22.6826L8.64348 29.0938C8.4108 29.6587 7.86529 30 7.29013 30Z" fill="black"/>
<path d="M16.4488 29.9976C15.7283 29.9976 15.1007 29.4654 15.0009 28.7316L14.0604 21.8235L12.0781 16.4188C11.7999 15.6601 12.1893 14.8195 12.948 14.5413C13.7066 14.263 14.5472 14.6525 14.8255 15.4112L16.8625 20.965C16.8988 21.064 16.9244 21.1668 16.9385 21.2714L17.9004 28.3369C18.0093 29.1376 17.4487 29.875 16.648 29.984C16.581 29.9931 16.5144 29.9976 16.4488 29.9976Z" fill="black"/>
<path d="M15.3339 16.7982L8.65653 17.61L7.55566 8.55455C7.43712 7.57977 8.13135 6.69354 9.10607 6.575L12.2535 6.19238C13.2283 6.07384 14.1145 6.76807 14.2331 7.74278L15.3339 16.7982Z" fill="#57C3C1"/>
<path d="M11.2716 5.26399C12.7253 5.26399 13.9036 4.0856 13.9036 2.63199C13.9036 1.17838 12.7253 0 11.2716 0C9.81803 0 8.63965 1.17838 8.63965 2.63199C8.63965 4.0856 9.81803 5.26399 11.2716 5.26399Z" fill="#FFB69E"/>
<path d="M23.5088 7.82276H17.6186C17.2519 7.82276 16.9546 7.52545 16.9546 7.15871V3.29601C16.9546 2.92927 17.2519 2.63196 17.6186 2.63196H23.5088C23.8756 2.63196 24.1729 2.92927 24.1729 3.29601V7.15871C24.1729 7.52545 23.8756 7.82276 23.5088 7.82276Z" fill="#C75E32"/>
<path d="M18.3611 14.3777C18.3193 14.3777 18.2771 14.3755 18.2346 14.3709L13.3994 13.8511C12.9959 13.8077 12.6435 13.5583 12.4684 13.192L10.2157 8.47807C9.937 7.89483 10.1839 7.19603 10.7672 6.91724C11.3505 6.63851 12.0493 6.88542 12.328 7.46867L14.2991 11.5934L18.4849 12.0433C19.1276 12.1124 19.5927 12.6895 19.5236 13.3322C19.459 13.9324 18.9514 14.3777 18.3611 14.3777Z" fill="#FFB69E"/>
<path d="M11.4164 10.9905L13.5948 10.1195L12.328 7.46867C12.0493 6.88542 11.3505 6.63851 10.7672 6.91724C10.1839 7.19597 9.937 7.89483 10.2157 8.47808L11.4164 10.9905Z" fill="#57C3C1"/>
</svg>
