<svg width="30" height="30" viewBox="0 0 30 30" fill="none" xmlns="http://www.w3.org/2000/svg">
<g clip-path="url(#clip0_79_2)">
<path d="M0.439453 5.09697C0.439453 2.50238 2.56143 0.403436 5.16463 0.440877C7.68621 0.477147 9.73658 2.5451 9.75252 5.06685C9.76143 6.47908 9.1415 7.74658 8.15643 8.60633C8.05248 8.69703 8.06742 8.86262 8.18619 8.93287L9.06363 9.45201C9.20549 9.53592 9.14596 9.75342 8.98113 9.75336L5.00789 9.75236C2.47682 9.70537 0.439453 7.63924 0.439453 5.09697Z" fill="#8FF5C7"/>
<path d="M9.06357 9.45112L8.18613 8.93198C8.06801 8.86208 8.0516 8.69678 8.15502 8.60655C9.15135 7.73766 9.77455 6.45176 9.75199 5.02073C9.71291 2.54544 7.70947 0.51358 5.23488 0.441451C4.88397 0.431256 4.54154 0.459967 4.21143 0.523424C6.35039 0.933463 7.98047 2.81883 7.99465 5.06596C8.0015 6.15423 7.635 7.15653 7.01566 7.95253C6.64172 8.43317 6.76324 9.1302 7.28736 9.44028L7.3057 9.45112C7.44604 9.53415 7.38908 9.74743 7.22836 9.75206L8.98102 9.75247C9.1459 9.75253 9.20543 9.53509 9.06357 9.45112Z" fill="#54D69E"/>
<path d="M23.1292 17.3422H12.5656C9.92715 17.3422 8.48334 14.2674 10.1684 12.2372L10.2621 12.1243C11.0045 11.2299 11.4109 10.1041 11.4109 8.9418V6.90473C11.4109 3.3342 14.3053 0.439789 17.8758 0.439789C21.4463 0.439789 24.3407 3.3342 24.3407 6.90467V9.01053C24.3407 10.185 24.7556 11.3218 25.5121 12.2202C27.2183 14.2463 25.7779 17.3422 23.1292 17.3422Z" fill="#C59191"/>
<path d="M28.6819 22.5768V29.5605H7.01221V22.6295C7.01221 21.0603 7.95264 19.6441 9.39932 19.0353L12.8968 17.5143L14.0751 17.0021C14.9687 16.6137 15.547 15.7324 15.547 14.758V14.3057H20.1478V14.7346C20.1478 15.7137 20.7313 16.5984 21.6308 16.984L26.3622 19.0119C27.7726 19.6371 28.6819 21.0346 28.6819 22.5768Z" fill="white"/>
<path d="M12.897 19.1798C14.0909 19.5365 15.8482 19.917 17.9902 19.8796C20.0001 19.8445 21.6499 19.4536 22.7979 19.087L23.3683 17.7286L21.6312 16.9841C20.7314 16.5984 20.1479 15.7136 20.1479 14.7346V14.3059H15.547V14.7579C15.547 15.7323 14.969 16.6139 14.0754 17.0024L12.6685 17.6141L12.897 19.1798Z" fill="#FFCEBF"/>
<path d="M26.3621 19.0121L22.798 17.4845L22.7974 17.4845V29.5605H28.6816V22.577C28.6816 21.0345 27.7724 19.637 26.3621 19.0121Z" fill="#57C3C1"/>
<path d="M12.8968 17.5143V29.5605H7.01221V22.6295C7.01221 21.0603 7.95264 19.6441 9.39932 19.0353L12.8968 17.5143Z" fill="#57C3C1"/>
<path d="M19.1545 13.3687H18.1246C17.6559 13.3687 17.2759 12.9887 17.2759 12.5199C17.2759 12.0512 17.6559 11.6712 18.1246 11.6712H19.1545C19.6232 11.6712 20.0032 12.0512 20.0032 12.5199C20.0032 12.9887 19.6232 13.3687 19.1545 13.3687Z" fill="white"/>
<path d="M18.1246 12.1106C17.8989 12.1106 17.7153 12.2943 17.7153 12.5199C17.7153 12.7455 17.899 12.9292 18.1246 12.9292H19.1545C19.3802 12.9292 19.5637 12.7455 19.5637 12.5199C19.5637 12.2943 19.3801 12.1106 19.1545 12.1106H18.1246Z" fill="black"/>
<path d="M17.8472 22.7332C18.0816 22.7332 18.2716 22.5432 18.2716 22.3088C18.2716 22.0744 18.0816 21.8844 17.8472 21.8844C17.6129 21.8844 17.4229 22.0744 17.4229 22.3088C17.4229 22.5432 17.6129 22.7332 17.8472 22.7332Z" fill="black"/>
<path d="M19.4421 16.8312C19.9714 16.8312 20.4758 16.7249 20.9356 16.5331C20.4424 16.0778 20.1478 15.4301 20.1478 14.7346V14.3059H15.5468V14.7579C15.5468 15.1099 15.471 15.4496 15.3325 15.7585C16.0292 16.4226 16.9717 16.8312 18.0103 16.8312H19.4421Z" fill="#FFB09E"/>
<path d="M22.446 7.38461V11.1908C22.446 13.3351 20.7077 15.0733 18.5635 15.0733H17.1316C14.9873 15.0733 13.249 13.335 13.249 11.1908V7.38461C13.249 5.98967 14.3799 4.85881 15.7748 4.85881H19.9202C21.3152 4.85887 22.446 5.98967 22.446 7.38461Z" fill="#FFCEBF"/>
<path d="M19.1545 13.3687H18.1246C17.6559 13.3687 17.2759 12.9887 17.2759 12.5199C17.2759 12.0512 17.6559 11.6712 18.1246 11.6712H19.1545C19.6232 11.6712 20.0032 12.0512 20.0032 12.5199C20.0032 12.9887 19.6232 13.3687 19.1545 13.3687Z" fill="#685E68"/>
<path d="M18.7649 3.85146C18.8635 2.60781 20.0541 1.78251 21.1936 1.35507C23.0786 2.48458 24.3406 4.54697 24.3406 6.90431V7.34874C24.2364 7.3706 24.1327 7.38976 24.0302 7.40505C23.4024 7.4988 22.8678 7.45826 22.5026 7.40505C20.1492 7.09152 18.6458 5.35345 18.7649 3.85146Z" fill="#B98080"/>
<path d="M17.8759 0.439789C19.336 0.439789 20.6828 0.924008 21.765 1.74028C21.2252 2.67971 19.9855 4.53707 17.6609 5.91209C15.9352 6.93291 14.3079 7.27592 13.3059 7.40547H11.4111V6.90467C11.4111 3.3342 14.3055 0.439789 17.8759 0.439789Z" fill="#C59191"/>
<path d="M25.1023 29.5605H11.0348L10.2589 22.2411C10.2039 21.722 10.6109 21.2696 11.1329 21.2696H25.0042C25.5263 21.2696 25.9333 21.722 25.8782 22.2411L25.1023 29.5605Z" fill="#EFEDEF"/>
<path d="M25.0039 21.2695H23.2461C23.7682 21.2695 24.1752 21.7219 24.1201 22.2411L23.3442 29.5606H25.1021L25.878 22.2411C25.933 21.7219 25.526 21.2695 25.0039 21.2695Z" fill="#E5E1E5"/>
<path d="M29.5605 30H0.439453C0.196699 30 0 29.8032 0 29.5606C0 29.3179 0.196699 29.1211 0.439453 29.1211H29.5605C29.8033 29.1211 30 29.3179 30 29.5606C30 29.8032 29.8033 30 29.5605 30Z" fill="#C9BFC8"/>
<path d="M18.0684 26.6455C18.7479 26.6455 19.2988 26.0946 19.2988 25.415C19.2988 24.7355 18.7479 24.1846 18.0684 24.1846C17.3888 24.1846 16.8379 24.7355 16.8379 25.415C16.8379 26.0946 17.3888 26.6455 18.0684 26.6455Z" fill="#C9BFC8"/>
<path d="M6.85389 5.53525C7.09658 5.53525 7.29334 5.33849 7.29334 5.0958C7.29334 4.8531 7.09658 4.65635 6.85389 4.65635C6.61119 4.65635 6.41443 4.8531 6.41443 5.0958C6.41443 5.33849 6.61119 5.53525 6.85389 5.53525ZM3.33826 5.53525C3.58096 5.53525 3.77771 5.33849 3.77771 5.0958C3.77771 4.8531 3.58096 4.65635 3.33826 4.65635C3.09557 4.65635 2.89881 4.8531 2.89881 5.0958C2.89881 5.33849 3.09557 5.53525 3.33826 5.53525ZM5.09607 5.53525C5.33877 5.53525 5.53553 5.33849 5.53553 5.0958C5.53553 4.8531 5.33877 4.65635 5.09607 4.65635C4.85338 4.65635 4.65662 4.8531 4.65662 5.0958C4.65662 5.33849 4.85338 5.53525 5.09607 5.53525ZM4.99969 10.1907C5.00238 10.1908 5.00508 10.1908 5.00777 10.1908L8.98096 10.1918H8.98119C9.2557 10.1918 9.48873 10.0139 9.56121 9.7492C9.63375 9.48435 9.52365 9.21254 9.2874 9.07279L8.68313 8.71525C9.65438 7.75261 10.2006 6.43918 10.192 5.06305C10.1746 2.31101 7.92211 0.0399788 5.1709 0.000369413C2.32002 -0.0405876 0 2.26549 0 5.09592C0 7.81015 2.23641 10.1319 4.99969 10.1907ZM2.13574 2.0924C2.94609 1.29365 4.01719 0.863279 5.1583 0.879158C7.43484 0.911912 9.29865 2.79125 9.31307 5.06855C9.32086 6.2972 8.79398 7.46562 7.8675 8.2741C7.71258 8.40922 7.63143 8.61201 7.65018 8.81656C7.66893 9.02099 7.7857 9.20545 7.96236 9.30992L7.96676 9.3125L5.01211 9.31179C2.72807 9.26797 0.878906 7.38629 0.878906 5.09592C0.878906 3.95797 1.32527 2.89133 2.13574 2.0924ZM29.5605 29.1209H29.1211V22.5766C29.1211 20.862 28.1079 19.3051 26.5351 18.6079L24.2191 17.6152C24.7826 17.4374 25.2918 17.1203 25.706 16.6804C26.331 16.0169 26.6895 15.1164 26.6895 14.2101C26.6895 13.3772 26.3985 12.5911 25.8479 11.9366C25.1592 11.1188 24.7799 10.0794 24.7799 9.00986V6.904C24.7799 5.05959 24.0616 3.32592 22.7574 2.02238C21.4532 0.718084 19.7194 -0.000157931 17.8753 -0.000157931C14.0683 -0.000157931 10.9712 3.09699 10.9712 6.90394V8.94125C10.9714 10.048 10.5364 11.1044 9.82969 11.9559C8.94018 13.0276 8.75537 14.4765 9.34746 15.7373C9.78691 16.6732 10.5796 17.3455 11.5285 17.6301L9.22869 18.6302C7.6152 19.3092 6.57258 20.879 6.57258 22.6294V27.8026C6.57258 28.0453 6.76928 28.2421 7.01203 28.2421C7.25479 28.2421 7.45148 28.0453 7.45148 27.8026V22.6294C7.45148 21.2336 8.28287 19.9817 9.57439 19.4383L12.4571 18.1847V19.1828V19.186V20.8299H11.1327C10.7595 20.8299 10.4022 20.9891 10.1525 21.2666C9.90293 21.5441 9.78234 21.9161 9.82172 22.2872L10.5461 29.1209H0.439453C0.196699 29.1209 0 29.3177 0 29.5604C0 29.8031 0.196699 29.9998 0.439453 29.9998H11.0336H11.0378H25.102H25.1025H25.1031H29.5605C29.8033 29.9998 30 29.8031 30 29.5604C30 29.3177 29.8033 29.1209 29.5605 29.1209ZM25.1754 12.5025C25.5909 12.9964 25.8105 13.5869 25.8105 14.21C25.8105 14.8948 25.5393 15.5755 25.0662 16.0778C24.5654 16.6095 23.8773 16.9024 23.1288 16.9024H22.5561L21.8038 16.5799C21.1467 16.2981 20.6971 15.6939 20.6053 14.9985C21.9612 14.2684 22.885 12.8356 22.885 11.1907V7.88697C23.0136 7.8957 23.1421 7.90045 23.2703 7.90045C23.4816 7.90045 23.6921 7.88843 23.901 7.86476V9.0098C23.901 10.2862 24.3537 11.5266 25.1754 12.5025ZM17.982 19.44C16.4099 19.4678 14.8496 19.2686 13.3359 18.8488V17.8025L13.463 17.7472C13.464 17.7468 13.465 17.7464 13.4661 17.746L14.2501 17.4051C15.1228 17.0257 15.7395 16.2486 15.9264 15.3405C16.3091 15.4518 16.713 15.5126 17.1311 15.5126H18.5631C18.9828 15.5126 19.3882 15.4513 19.7722 15.3392C19.9653 16.2431 20.5843 17.0132 21.4574 17.3878L22.2942 17.7464C22.2947 17.7466 22.2952 17.7468 22.2957 17.747L22.3577 17.7736V18.7624C20.9355 19.1862 19.4651 19.4141 17.982 19.44ZM22.3577 19.6774V20.83H13.3359V19.7589C14.7606 20.1324 16.2233 20.3214 17.696 20.3214C17.7964 20.3214 17.8969 20.3206 17.9974 20.3188C19.4733 20.293 20.9372 20.0773 22.3577 19.6774ZM23.901 6.97859C22.6905 7.14213 21.326 6.81787 20.3859 6.08949C20.1942 5.9409 19.9181 5.97582 19.7694 6.16771C19.6208 6.35955 19.6558 6.63558 19.8476 6.78424C20.4622 7.26037 21.2035 7.59576 22.0061 7.76486V10.1573C21.7949 10.6386 21.5599 11.0388 21.0299 11.4761C20.8068 11.6602 20.5625 11.813 20.301 11.9343C20.0874 11.5176 19.6536 11.2315 19.1541 11.2315H18.1242C17.4139 11.2315 16.836 11.8094 16.836 12.5197C16.836 13.23 17.4139 13.8079 18.1242 13.8079H19.1541C19.7518 13.8079 20.2557 13.3985 20.4004 12.8455C20.9883 12.6215 21.9468 11.8224 21.9471 11.8221C21.6495 13.4198 20.2458 14.6335 18.5631 14.6335H17.1311C15.2326 14.6335 13.6881 13.089 13.6881 11.1905V7.79357C15.1806 7.55961 16.5907 7.05453 17.8839 6.28965C19.8528 5.12498 21.1158 3.60306 21.878 2.40066C23.1821 3.56217 23.924 5.22734 23.901 6.97859ZM19.5632 12.5209C19.5626 12.7461 19.3793 12.9291 19.154 12.9291H18.1242C17.8985 12.9291 17.7149 12.7454 17.7149 12.5198C17.7149 12.2942 17.8985 12.1105 18.1242 12.1105H19.154C19.3792 12.1105 19.5625 12.2934 19.5632 12.5185V12.5209ZM11.85 6.90394C11.85 3.58162 14.5529 0.878748 17.8753 0.878748C19.0668 0.878748 20.2054 1.22269 21.1783 1.86301C20.4769 2.98736 19.2963 4.43322 17.4364 5.53338C16.1606 6.28806 14.7611 6.76988 13.2766 6.96547H13.2492C13.249 6.96547 13.2489 6.96547 13.2486 6.96547C13.2484 6.96547 13.2483 6.96547 13.248 6.96547H11.85V6.90394ZM10.1429 15.3637C9.69732 14.4146 9.83643 13.3239 10.5054 12.5179C11.3449 11.5065 11.851 10.2568 11.8501 8.94125V7.84437H12.8092V11.1907C12.8092 12.8365 13.7343 14.2701 15.0914 14.9997C15.0065 15.7004 14.5583 16.3126 13.8996 16.599L13.2019 16.9024H12.5649C11.5166 16.9024 10.5886 16.3128 10.1429 15.3637ZM25.441 22.1946L24.7068 29.1209H11.4299L10.6956 22.1946C10.6823 22.0691 10.7215 21.9482 10.8059 21.8544C10.8904 21.7606 11.0064 21.7089 11.1326 21.7089H25.0039C25.1302 21.7089 25.2462 21.7606 25.3307 21.8544C25.4151 21.9482 25.4542 22.0691 25.441 22.1946ZM28.2422 29.1209H25.5905L26.3149 22.2873C26.3543 21.9161 26.2337 21.5441 25.9841 21.2666C25.7344 20.9891 25.3772 20.83 25.0039 20.83H23.2365V19.0929C23.2366 19.0876 23.2366 19.0823 23.2365 19.077V18.1503L26.1838 19.4135C27.4342 19.9678 28.2422 21.2094 28.2422 22.5766V29.1209ZM18.0683 23.745C17.1475 23.745 16.3983 24.4941 16.3983 25.4149C16.3983 26.3357 17.1475 27.0848 18.0683 27.0848C18.9891 27.0848 19.7382 26.3357 19.7382 25.4149C19.7382 24.4941 18.9891 23.745 18.0683 23.745ZM18.0683 26.2059C17.6321 26.2059 17.2772 25.8511 17.2772 25.4149C17.2772 24.9787 17.6321 24.6239 18.0683 24.6239C18.5044 24.6239 18.8593 24.9787 18.8593 25.4149C18.8593 25.8511 18.5045 26.2059 18.0683 26.2059Z" fill="black"/>
</g>
<defs>
<clipPath id="clip0_79_2">
<rect width="30" height="30" fill="white"/>
</clipPath>
</defs>
</svg>
