<svg width="40" height="40" viewBox="0 0 40 40" fill="none" xmlns="http://www.w3.org/2000/svg">
<g clip-path="url(#clip0_61_162)">
<path d="M39 17.32C38.9988 17.3191 38.9979 17.3178 38.997 17.3169L22.6801 1.00067C21.9846 0.304865 21.06 -0.0781314 20.0764 -0.0781314C19.0928 -0.0781314 18.1681 0.304865 17.4723 1.00067L1.16398 17.3087C1.15849 17.3142 1.15269 17.32 1.1475 17.3255C-0.280721 18.7619 -0.27828 21.0926 1.15452 22.5254C1.80913 23.1803 2.67339 23.5593 3.59776 23.5993C3.63561 23.6029 3.67345 23.6048 3.7116 23.6048H4.36162V35.6122C4.36162 37.9887 6.29522 39.9219 8.67163 39.9219H15.0553C15.7026 39.9219 16.2272 39.397 16.2272 38.7501V29.336C16.2272 28.2517 17.1094 27.3697 18.1937 27.3697H21.959C23.0433 27.3697 23.9253 28.2517 23.9253 29.336V38.7501C23.9253 39.397 24.4499 39.9219 25.0971 39.9219H31.4808C33.8575 39.9219 35.7908 37.9887 35.7908 35.6122V23.6048H36.3938C37.3771 23.6048 38.3018 23.2218 38.9979 22.5257C40.4322 21.0907 40.4329 18.7558 39 17.32ZM37.3405 20.8686C37.0875 21.1216 36.7512 21.261 36.3938 21.261H34.6189C33.9717 21.261 33.4471 21.7856 33.4471 22.4329V35.6122C33.4471 36.6962 32.5651 37.5782 31.4808 37.5782H26.269V29.336C26.269 26.9596 24.3357 25.026 21.959 25.026H18.1937C15.817 25.026 13.8834 26.9596 13.8834 29.336V37.5782H8.67163C7.58764 37.5782 6.70538 36.6962 6.70538 35.6122V22.4329C6.70538 21.7856 6.18078 21.261 5.5335 21.261H3.78911C3.7708 21.2598 3.75279 21.2589 3.73418 21.2586C3.38506 21.2525 3.0576 21.1139 2.81224 20.8683C2.29039 20.3464 2.29039 19.4971 2.81224 18.9749C2.81255 18.9749 2.81255 18.9746 2.81285 18.9743L2.81377 18.9734L19.13 2.65777C19.3827 2.40478 19.7187 2.26562 20.0764 2.26562C20.4337 2.26562 20.7697 2.40478 21.0227 2.65777L37.3353 18.9701C37.3378 18.9725 37.3405 18.9749 37.3429 18.9774C37.862 19.5002 37.8611 20.3476 37.3405 20.8686Z" fill="black"/>
</g>
<defs>
<clipPath id="clip0_61_162">
<rect width="40" height="40" fill="white"/>
</clipPath>
</defs>
</svg>
