<svg width="40" height="40" viewBox="0 0 40 40" fill="none" xmlns="http://www.w3.org/2000/svg">
<g clip-path="url(#clip0_77_110)">
<path d="M33.1396 16.07L19.9921 3.88989L6.84454 16.07L4.646 18.1367V37.7041C4.646 38.4516 5.21764 39.0232 5.96511 39.0232H34.019C34.7665 39.0232 35.3381 38.4515 35.3381 37.7041V18.1367L33.1396 16.07Z" fill="#4DCFE0"/>
<path d="M39.5591 18.6643L34.8981 14.3551L20.8712 1.33952C20.3435 0.855822 19.596 0.855822 19.0684 1.33952L5.08537 14.3551L0.424346 18.6643C-0.103281 19.148 -0.147299 19.9835 0.336394 20.5112C0.820087 21.0389 1.6555 21.0828 2.18321 20.5991L4.64561 18.3566L6.84416 16.2899L19.9918 4.1097L33.1393 16.2898L35.3379 18.3565L37.8003 20.599C38.0641 20.8189 38.3719 20.9508 38.6797 20.9508C39.0315 20.9508 39.3832 20.819 39.6471 20.5112C40.1308 19.9835 40.1308 19.148 39.5591 18.6643Z" fill="#3A2C51"/>
<path d="M19.9924 34.1864C25.6208 34.1864 30.1938 29.6133 30.1938 23.985C30.1938 18.3566 25.6208 13.7835 19.9924 13.7835C14.3641 13.7835 9.79102 18.3566 9.79102 23.985C9.79102 29.6133 14.364 34.1864 19.9924 34.1864Z" fill="#D4E1F4"/>
<path d="M16.2547 25.304H18.6731V27.7225C18.6731 28.4701 19.2448 29.0416 19.9922 29.0416C20.7397 29.0416 21.3113 28.47 21.3113 27.7225V25.304H23.7298C24.4774 25.304 25.0489 24.7324 25.0489 23.9849C25.0489 23.2374 24.4773 22.6658 23.7298 22.6658H21.3113V20.2474C21.3113 19.4998 20.7397 18.9283 19.9922 18.9283C19.2448 18.9283 18.6731 19.4999 18.6731 20.2474V22.6658H16.2547C15.5071 22.6658 14.9355 23.2375 14.9355 23.9849C14.9355 24.7325 15.5072 25.304 16.2547 25.304Z" fill="#3A2C51"/>
</g>
<defs>
<clipPath id="clip0_77_110">
<rect width="40" height="40" fill="white"/>
</clipPath>
</defs>
</svg>
