<svg width="40" height="40" viewBox="0 0 40 40" fill="none" xmlns="http://www.w3.org/2000/svg">
<path d="M30.499 10.157C30.5003 11.1421 30.3068 12.1178 29.9298 13.0278C29.5528 13.9379 28.9996 14.7645 28.3021 15.4602L15.9279 27.8344C14.5175 29.222 12.616 29.9961 10.6374 29.988C8.6589 29.9799 6.76371 29.1904 5.36467 27.7914C3.96563 26.3923 3.17609 24.4971 3.16803 22.5186C3.15997 20.5401 3.93405 18.6385 5.32166 17.2281L17.6959 4.85391C18.7448 3.80508 20.0811 3.09083 21.5359 2.80147C22.9907 2.51211 24.4987 2.66064 25.8691 3.22827C27.2395 3.79589 28.4108 4.75713 29.2349 5.99044C30.059 7.22374 30.4989 8.67372 30.499 10.157Z" fill="#E3E3E2"/>
<path d="M29.66 13.6078C29.3054 14.2914 28.8474 14.9162 28.3022 15.4601L15.9279 27.8343C14.8506 28.9153 13.4675 29.6398 11.9655 29.9101C11.1338 27.4967 11.0236 24.8932 11.6484 22.4181C12.2731 19.9431 13.6056 17.7037 15.483 15.9741C17.3604 14.2444 19.7011 13.0994 22.219 12.6792C24.7369 12.2589 27.3226 12.5816 29.66 13.6078Z" fill="#C9C9C8"/>
<path d="M22.1158 21.6476L15.9283 27.8344C15.234 28.5401 14.4068 29.1014 13.4944 29.4859C12.5821 29.8703 11.6026 30.0703 10.6126 30.0744C9.62252 30.0784 8.64147 29.8864 7.72602 29.5094C6.81056 29.1323 5.9788 28.5778 5.27873 27.8777C4.57866 27.1777 4.02412 26.3459 3.64711 25.4304C3.27009 24.515 3.07806 23.5339 3.08209 22.5439C3.08612 21.5538 3.28614 20.5744 3.67059 19.662C4.05505 18.7497 4.61634 17.9225 5.32209 17.2281L11.5088 11.0406L15.9932 15.525L22.1158 21.6476Z" fill="#0093B8"/>
<path d="M22.1156 21.6477L15.9281 27.8344C14.8507 28.9154 13.4677 29.6399 11.9656 29.9102C11.0971 27.3871 11.0172 24.6593 11.7366 22.0897C12.456 19.5201 13.9406 17.2304 15.993 15.525L22.1156 21.6477Z" fill="#0B83A8"/>
<path d="M4.82129 13.3069L15.4837 2.64447L16.3675 3.52822L5.70504 14.1907L4.82129 13.3069Z" fill="#E3E3E2"/>
<path d="M3.10986 15.0172L4.01372 14.1133L4.89747 14.9971L3.99361 15.9009L3.10986 15.0172Z" fill="#E3E3E2"/>
<path d="M36.0338 27.611C35.9634 28.0225 35.8716 28.4301 35.7588 28.8321C34.9387 31.7617 33.0256 34.2648 30.4141 35.8252C27.8025 37.3856 24.6917 37.8841 21.7233 37.218C18.7549 36.552 16.1553 34.772 14.4608 32.2454C12.7664 29.7188 12.1062 26.6382 12.6166 23.6391C12.687 23.2276 12.7788 22.82 12.8916 22.418C13.7116 19.4884 15.6247 16.9852 18.2363 15.4248C20.8478 13.8645 23.9587 13.3659 26.9271 14.032C29.8955 14.6981 32.495 16.478 34.1895 19.0047C35.8839 21.5313 36.5441 24.6119 36.0338 27.611Z" fill="#57C3C1"/>
<path d="M36.0334 27.6109C35.9631 28.0225 35.8713 28.4301 35.7584 28.832C35.6459 29.2341 35.5121 29.63 35.3576 30.018L12.6162 23.6391C12.6866 23.2275 12.7784 22.8199 12.8912 22.418C13.0037 22.0158 13.1375 21.62 13.292 21.232L36.0334 27.6109Z" fill="#1AA7A1"/>
</svg>
