<svg width="40" height="40" viewBox="0 0 40 40" fill="none" xmlns="http://www.w3.org/2000/svg">
<g clip-path="url(#clip0_61_164)">
<path d="M35.9811 21.9301C36.4964 20.2996 36.758 18.6056 36.758 16.8797C36.758 12.6051 35.168 8.57555 32.2698 5.46414C32.259 5.45141 32.2474 5.43969 32.2359 5.42773C32.1093 5.29258 31.9812 5.15852 31.8496 5.02695C28.6843 1.86086 24.4755 0.117188 19.9988 0.117188C15.2152 0.117188 10.8936 2.13313 7.83758 5.35992C7.77938 5.40656 7.72703 5.46203 7.68305 5.52594C4.92789 8.5143 3.24203 12.5035 3.24203 16.8797C3.24203 18.6083 3.50289 20.3024 4.01695 21.9304C1.74383 22.2897 0 24.2627 0 26.6359V35.1184C0 37.7455 2.13672 39.8828 4.76297 39.8828H16.4866C16.918 39.8828 17.2679 39.533 17.2679 39.1016C17.2679 38.6702 16.918 38.3203 16.4866 38.3203H4.76297C2.9982 38.3203 1.5625 36.8839 1.5625 35.1184V26.6359C1.5625 24.8704 2.9982 23.4341 4.76297 23.4341H12.2725C12.2737 23.4341 12.2748 23.4342 12.276 23.4342C12.277 23.4342 12.278 23.4341 12.2791 23.4341H27.7188C27.7198 23.4341 27.7208 23.4342 27.7218 23.4342C27.723 23.4342 27.7241 23.4341 27.7253 23.4341H34.8953C34.897 23.4341 34.8987 23.4343 34.9003 23.4343C34.9023 23.4343 34.9044 23.4341 34.9064 23.4341H35.2371C37.0019 23.4341 38.4376 24.8705 38.4376 26.6359V35.1184C38.4376 36.8839 37.0019 38.3202 35.2371 38.3202H23.5045C23.073 38.3202 22.7232 38.6701 22.7232 39.1015C22.7232 39.5329 23.073 39.8827 23.5045 39.8827H35.237C37.8633 39.8827 40 37.7455 40 35.1184V26.6359C40 24.262 38.2552 22.2885 35.9811 21.9301ZM28.658 21.8716C28.884 20.5108 29.0158 19.1008 29.0507 17.6609H35.1751C35.1021 19.1013 34.8269 20.5124 34.3542 21.8716H28.658ZM20.7801 21.8716V17.6609H27.4872C27.4505 19.1052 27.3116 20.5161 27.0729 21.8716H20.7801ZM12.9255 21.8716C12.6866 20.5096 12.5476 19.0988 12.5107 17.6609H19.2177V21.8716H12.9255ZM5.64367 21.8716C5.17211 20.5147 4.8975 19.1035 4.82484 17.6609H10.9472C10.9822 19.095 11.1142 20.5049 11.3405 21.8716H5.64367ZM8.5057 6.94797C9.61656 7.51 10.849 7.9807 12.1725 8.35375C11.4368 10.6863 11.0142 13.3327 10.9472 16.0985H4.82438C5.00172 12.6107 6.35992 9.42961 8.5057 6.94797ZM35.1756 16.0985H29.0505C28.9835 13.3327 28.5609 10.6865 27.8252 8.35391C29.1491 7.98078 30.3822 7.51008 31.4937 6.94805C33.6399 9.42969 34.9983 12.6108 35.1756 16.0985ZM19.2176 7.80508C17.4963 7.75992 15.8124 7.56633 14.2356 7.24C14.4224 6.78805 14.6229 6.3532 14.8376 5.93883C16.0648 3.57016 17.597 2.12031 19.2175 1.76594V7.80508H19.2176ZM19.2176 9.36812V16.0984H12.5099C12.577 13.4519 12.9847 10.9325 13.6913 8.73031C15.428 9.10477 17.2898 9.32195 19.2176 9.36812ZM20.7801 9.36812C22.7077 9.32195 24.5694 9.10477 26.3064 8.73031C27.013 10.9325 27.4207 13.4519 27.4877 16.0984H20.7801V9.36812ZM20.7801 7.80508V1.76586C22.4006 2.12023 23.9329 3.57008 25.1601 5.93875C25.3748 6.35313 25.5752 6.78797 25.762 7.23992C24.185 7.56625 22.5012 7.75992 20.7801 7.80508ZM27.2979 6.87063C27.0684 6.29469 26.8184 5.74289 26.5475 5.22C25.9699 4.10516 25.3209 3.16062 24.6174 2.3982C26.7784 3.0893 28.7302 4.25172 30.3523 5.76422C29.4221 6.19734 28.3951 6.5682 27.2979 6.87063ZM13.4502 5.22C13.1794 5.74289 12.9293 6.29461 12.6999 6.87055C11.6031 6.56813 10.5766 6.19727 9.64703 5.76422C11.2685 4.25195 13.2198 3.08961 15.38 2.39852C14.6767 3.16094 14.0277 4.10539 13.4502 5.22Z" fill="black"/>
<path d="M9.45379 27.4601V31.9138L5.83738 26.9972C5.63723 26.7253 5.2852 26.6125 4.96441 26.7178C4.64371 26.8231 4.42676 27.1225 4.42676 27.4601V34.2944C4.42676 34.7258 4.7766 35.0757 5.20801 35.0757C5.63941 35.0757 5.98926 34.7258 5.98926 34.2944V29.8407L9.60566 34.7573C9.75574 34.9613 9.99137 35.0757 10.2351 35.0757C10.3164 35.0757 10.3985 35.063 10.4786 35.0367C10.7993 34.9314 11.0163 34.632 11.0163 34.2944V27.4601C11.0163 27.0287 10.6664 26.6789 10.235 26.6789C9.80363 26.6789 9.45379 27.0287 9.45379 27.4601Z" fill="black"/>
<path d="M17.0027 28.2413C17.4341 28.2413 17.7839 27.8915 17.7839 27.4601C17.7839 27.0287 17.4341 26.6788 17.0027 26.6788H13.8403C13.4089 26.6788 13.0591 27.0287 13.0591 27.4601V34.2944C13.0591 34.7258 13.4089 35.0756 13.8403 35.0756H17.0027C17.4341 35.0756 17.7839 34.7258 17.7839 34.2944C17.7839 33.863 17.4341 33.5131 17.0027 33.5131H14.6216V31.6595H17.0027C17.4341 31.6595 17.7839 31.3097 17.7839 30.8783C17.7839 30.4469 17.4341 30.097 17.0027 30.097H14.6216V28.2413H17.0027Z" fill="black"/>
<path d="M25.5818 34.8248C25.7327 34.988 25.9418 35.0756 26.1555 35.0756C26.2511 35.0756 26.3477 35.058 26.4403 35.0219C26.7396 34.9046 26.9367 34.6159 26.9367 34.2944V27.4601C26.9367 27.0287 26.5868 26.6788 26.1554 26.6788C25.724 26.6788 25.3742 27.0287 25.3742 27.4601V32.2991L23.9564 30.7665C23.9485 30.7579 23.9411 30.7509 23.9339 30.7444C23.9269 30.7375 23.9207 30.7302 23.9134 30.7234C23.5968 30.4305 23.1025 30.4496 22.8094 30.7665L21.3916 32.2992V27.4601C21.3916 27.0287 21.0418 26.6788 20.6104 26.6788C20.1789 26.6788 19.8291 27.0287 19.8291 27.4601V34.2944C19.8291 34.6159 20.0261 34.9046 20.3255 35.0219C20.4182 35.0581 20.5146 35.0756 20.6103 35.0756C20.8239 35.0756 21.0331 34.988 21.1839 34.8248L23.383 32.4475L25.5818 34.8248Z" fill="black"/>
<path d="M33.0822 33.5131H29.7627C29.3313 33.5131 28.9814 33.863 28.9814 34.2944C28.9814 34.7258 29.3313 35.0756 29.7627 35.0756H33.0822C34.4545 35.0756 35.5709 33.9589 35.5709 32.5863C35.5709 31.2137 34.4545 30.0971 33.0822 30.0971H31.47C30.9594 30.0971 30.5439 29.6814 30.5439 29.1704C30.5439 28.6581 30.9594 28.2414 31.47 28.2414H34.7896C35.2211 28.2414 35.5709 27.8916 35.5709 27.4602C35.5709 27.0287 35.2211 26.6789 34.7896 26.6789H31.47C30.0978 26.6789 28.9814 27.7966 28.9814 29.1704C28.9814 30.543 30.0978 31.6596 31.47 31.6596H33.0822C33.5929 31.6596 34.0084 32.0753 34.0084 32.5863C34.0084 33.0973 33.5929 33.5131 33.0822 33.5131Z" fill="black"/>
<path d="M19.9966 38.3203C19.5652 38.3203 19.2153 38.6702 19.2153 39.1016C19.2153 39.533 19.5652 39.8828 19.9966 39.8828H19.9988C20.4302 39.8828 20.7789 39.533 20.7789 39.1016C20.7789 38.6702 20.428 38.3203 19.9966 38.3203Z" fill="black"/>
</g>
<defs>
<clipPath id="clip0_61_164">
<rect width="40" height="40" fill="white"/>
</clipPath>
</defs>
</svg>
