<svg width="28" height="28" viewBox="0 0 28 28" fill="none" xmlns="http://www.w3.org/2000/svg">
<path d="M13.9676 1H13.3738C9.3237 1 6 3.89452 6 7.56474V11.3183C6 12.5731 6.65632 13.651 7.96873 14.0421V16.561C7.96873 18.941 12.3687 20.9061 13.1805 20.9061H14.0908C14.9031 20.9061 19.3436 18.941 19.3436 16.561V14.0643C20.4374 13.6656 21.3124 12.5548 21.3124 11.3181V7.56474C21.3124 3.89452 18.0178 1 13.9676 1ZM13.6704 11.4281C14.4889 11.4281 14.7951 13.5077 14.7951 13.9326C14.7951 14.5775 14.3991 14.6516 14.1014 14.6516C14.0393 14.6516 13.9724 14.6489 13.9013 14.646C13.7557 14.6398 13.5844 14.6398 13.439 14.646C13.368 14.6492 13.3012 14.6516 13.2388 14.6516C13.0777 14.6516 12.894 14.6351 12.75 14.5119C12.5663 14.3539 12.545 14.106 12.545 13.9326C12.5455 13.5077 12.8519 11.4281 13.6704 11.4281ZM9.28181 9.51577C9.5636 9.1753 9.9668 8.97101 10.4168 8.94077L11.0984 8.89507C12.0482 8.83123 12.7887 9.32582 12.7887 9.99267C12.7887 10.6161 12.1642 11.4195 11.367 11.8214L10.7759 12.1195C10.5582 12.2293 10.3395 12.2851 10.1254 12.2851C9.52373 12.2851 9.06588 11.8364 8.98524 11.1691L8.93103 10.7213C8.87794 10.2807 9.00248 9.85289 9.28181 9.51577ZM18.3067 14.7233L16.9374 15.1883V15.9398C16.9374 15.9665 16.9074 16.0501 16.9029 16.0756C16.8595 16.8746 16.1194 17.4059 14.9499 17.4059H12.3437C11.41 17.4059 10.3749 16.8273 10.3749 15.9396V15.1881L9.02354 14.7231C8.79439 14.6467 8.69314 14.399 8.76908 14.1698C8.84546 13.9409 9.10396 13.8157 9.33378 13.8932L10.9903 14.4579C11.169 14.5172 11.2501 14.6846 11.2501 14.8727V15.9401C11.2501 15.9929 11.3133 16.0413 11.3433 16.0854C11.4214 16.0082 11.5491 15.9598 11.6685 15.9598C11.9098 15.9598 12.125 16.1556 12.125 16.397V16.4035C12.125 16.412 12.276 16.531 12.3439 16.531H12.5627V16.3968C12.5627 16.1553 12.7587 15.9596 13.0002 15.9596C13.2417 15.9596 13.4377 16.1553 13.4377 16.3968V16.531H13.8751V16.3968C13.8751 16.1553 14.0711 15.9596 14.3126 15.9596C14.5541 15.9596 14.7501 16.1553 14.7501 16.3968V16.531H14.9501C15.0247 16.531 14.9689 16.4145 15.1878 16.4082V16.3968C15.1878 16.1553 15.3878 15.9596 15.6297 15.9596C15.759 15.9596 15.8761 16.0173 15.9563 16.1067C15.9841 16.0583 16.0296 16.0037 16.0296 15.9396C16.0296 15.9172 16.0627 15.8953 16.0627 15.8738V14.8723C16.0627 14.6841 16.1559 14.5168 16.3344 14.4574L18.0167 13.8927C18.2463 13.8152 18.5003 13.9404 18.5767 14.1694C18.653 14.3983 18.5357 14.6469 18.3067 14.7233ZM18.5993 10.7213L18.5453 11.1691C18.4644 11.8364 18.0066 12.2851 17.4054 12.2851H17.4051C17.191 12.2849 16.9719 12.2293 16.7546 12.1195L16.1635 11.8214C15.3661 11.4195 14.7416 10.6161 14.7416 9.99267C14.7416 9.3256 15.4828 8.83235 16.4316 8.89507L17.1135 8.94077C17.5637 8.97123 17.9669 9.17552 18.2487 9.51577C18.528 9.85289 18.6526 10.2807 18.5993 10.7213Z" fill="#9B0303" fill-opacity="0.76"/>
<path d="M27.8268 11.1824C27.6545 10.884 27.3763 10.6708 27.0437 10.5816L26.8546 10.531L26.9052 10.3417C26.9944 10.0091 26.9487 9.66164 26.7764 9.36305C26.6042 9.06446 26.326 8.85122 25.9933 8.76206C25.8836 8.7325 25.7711 8.71771 25.6582 8.71771C25.0761 8.71771 24.5638 9.11105 24.4137 9.67441L24.1673 10.5928L20.8109 12.5284C20.771 12.5517 20.7394 12.5871 20.7206 12.6292L19.8804 14.5233L19.2463 15.9529C19.208 16.0393 19.2297 16.1408 19.3 16.2038C19.341 16.2407 19.3932 16.2598 19.4461 16.2598C19.4835 16.2598 19.5211 16.2501 19.5554 16.2304L25.4569 12.8272L26.3755 13.0734C26.7045 13.1621 27.0605 13.1141 27.3546 12.9448C27.6532 12.7721 27.8664 12.4937 27.9556 12.1612C28.0447 11.8286 27.999 11.4807 27.8268 11.1824Z" fill="#9B0303" fill-opacity="0.76"/>
<path d="M12.4377 19.9604L10.3427 18.6955C10.2746 18.6542 10.1892 18.6536 10.1207 18.6932L2.54323 23.0632L1.62438 22.817C1.51462 22.7875 1.40218 22.7727 1.28928 22.7727C0.706883 22.7727 0.194597 23.1658 0.044518 23.7292C-0.0446337 24.0618 0.00106214 24.4094 0.173093 24.708C0.345573 25.0066 0.62378 25.2199 0.956418 25.3088L1.14525 25.3597L1.09463 25.5487C1.0057 25.8813 1.05117 26.229 1.22343 26.5276C1.3959 26.8264 1.67389 27.0394 2.00653 27.1288C2.11629 27.1581 2.22873 27.1727 2.34118 27.1727C2.56675 27.1727 2.7894 27.1127 2.98563 26.9998C3.28399 26.8273 3.49769 26.5489 3.58639 26.2167L3.83279 25.2978L12.4344 20.3374C12.5013 20.2986 12.5428 20.2276 12.5437 20.1499C12.5446 20.0726 12.5042 20.0007 12.4377 19.9604Z" fill="#9B0303" fill-opacity="0.76"/>
<path d="M8.69824 15.942L8.58602 13.6819L7.25277 12.5874C7.23351 12.544 7.20125 12.5046 7.15959 12.481L3.83276 10.5934L3.58681 9.675C3.4365 9.11142 2.92444 8.71808 2.34182 8.71808C2.22915 8.71808 2.1167 8.73264 2.00694 8.76221C1.6743 8.85113 1.39609 9.06461 1.22384 9.36297C1.05158 9.66156 1.00611 10.0088 1.09526 10.3416L1.14589 10.5309L0.957056 10.5815C0.624417 10.6705 0.345987 10.8839 0.173731 11.1823C0.00147596 11.4807 -0.0442198 11.8285 0.0451558 12.1612C0.133859 12.4934 0.347331 12.7718 0.645697 12.9445C0.939808 13.1138 1.29619 13.162 1.62435 13.0731L2.54319 12.8269L8.40413 16.2794C8.43818 16.2991 8.47603 16.3585 8.51389 16.3585C8.51456 16.3585 8.51546 16.3585 8.51635 16.3585C8.6353 16.3585 8.73677 16.212 8.73677 16.0908C8.73677 16.0446 8.72266 15.977 8.69824 15.942Z" fill="#9B0303" fill-opacity="0.76"/>
<path d="M27.9552 23.7285C27.8049 23.1658 27.2929 22.7727 26.7105 22.7727C26.5978 22.7727 26.4851 22.7875 26.3756 22.817L25.4568 23.0632L17.8793 18.6932C17.8132 18.6556 17.7328 18.654 17.6656 18.6903L15.4565 19.8896C15.3871 19.9272 15.3434 19.9996 15.3423 20.0789C15.3412 20.1579 15.3831 20.2316 15.4516 20.2711L24.167 25.2971L24.4134 26.2158C24.5021 26.5482 24.7153 26.8268 25.0144 26.9991C25.2101 27.1122 25.433 27.172 25.6584 27.172C25.771 27.172 25.8835 27.1575 25.9928 27.1281C26.3257 27.039 26.6041 26.8257 26.7761 26.5269C26.9486 26.2283 26.9943 25.8807 26.9049 25.548L26.8543 25.359L27.0431 25.3081C27.376 25.2194 27.6544 25.0059 27.8264 24.7074C27.9989 24.4088 28.0446 24.0611 27.9552 23.7285Z" fill="#9B0303" fill-opacity="0.76"/>
<path d="M19.2271 13.3782L19.2456 15.9526L20.72 12.6289L19.2271 13.3782Z" fill="#9B0303" fill-opacity="0.76"/>
</svg>
