<svg width="28" height="28" viewBox="0 0 28 28" fill="none" xmlns="http://www.w3.org/2000/svg">
<path d="M27.3919 15.8137C26.9697 15.7005 26.5086 15.9409 26.3872 16.3937L26.3682 16.4646L24.4701 15.956C24.5884 15.3217 24.6508 14.668 24.6508 14C24.6508 13.3318 24.5883 12.6781 24.4701 12.0437L26.3682 11.5351L26.3871 11.606C26.5085 12.0589 26.9697 12.2992 27.3918 12.186C27.8294 12.0688 28.0891 11.619 27.9718 11.1814L27.5092 9.45493C27.3919 9.01732 26.9424 8.75755 26.5046 8.87491C26.067 8.99216 25.8073 9.44197 25.9245 9.87958L25.9435 9.95045L24.0449 10.4592C23.6025 9.20785 22.9328 8.06308 22.0852 7.07493L23.4787 5.68144L23.5306 5.73333C23.8509 6.05364 24.3703 6.05375 24.6907 5.73333C25.011 5.41297 25.011 4.89361 24.6907 4.57325L23.4269 3.30942C23.1066 2.98906 22.5871 2.98906 22.2668 3.30942C21.9464 3.62978 21.9464 4.14915 22.2668 4.46951L22.3187 4.5214L20.9252 5.91484C19.9369 5.06719 18.7921 4.39748 17.5407 3.95511L18.0494 2.05658L18.1203 2.07556C18.5749 2.1974 19.0124 1.91544 19.1249 1.49554C19.2422 1.05794 18.9825 0.608131 18.5449 0.490881L16.8185 0.028279C16.3808 -0.0890257 15.931 0.17074 15.8138 0.608295C15.6966 1.0459 15.9562 1.49571 16.3938 1.61296L16.4647 1.63194L15.9561 3.53003C15.3218 3.41179 14.6681 3.34934 14 3.34934C13.332 3.34934 12.6783 3.41179 12.044 3.53003L11.5354 1.63194L11.6063 1.61296C12.0439 1.49571 12.3035 1.0459 12.1863 0.608295C12.0691 0.170631 11.6193 -0.089135 11.1817 0.0281696L9.45524 0.490771C9.01763 0.608021 8.75798 1.05783 8.87523 1.49544C8.98772 1.91538 9.42522 2.19735 9.87989 2.07545L9.95076 2.05647L10.4595 3.95501C9.20805 4.39743 8.06323 5.06708 7.07497 5.91473L5.68148 4.52129L5.73337 4.4694C6.05373 4.14904 6.05373 3.62967 5.73337 3.30931C5.41307 2.98895 4.89365 2.98895 4.57329 3.30931L3.30946 4.57314C2.9891 4.8935 2.9891 5.41287 3.30946 5.73322C3.62982 6.05364 4.1493 6.05353 4.46955 5.73322L4.52144 5.68133L5.91494 7.07482C5.06733 8.06302 4.39769 9.2078 3.95526 10.4591L2.05662 9.95034L2.0756 9.87947C2.19285 9.44186 1.93319 8.99205 1.49558 8.8748C1.05776 8.75744 0.608171 9.01721 0.490921 9.45482L0.0282097 11.1814C-0.0890403 11.619 0.170616 12.0688 0.608225 12.1861C1.03041 12.2993 1.49154 12.0589 1.61289 11.6061L1.63187 11.5352L3.52996 12.0438C3.41173 12.6782 3.34922 13.3319 3.34922 14C3.34922 14.6681 3.41167 15.3217 3.5299 15.9561L1.63181 16.4647L1.61283 16.3938C1.49148 15.9409 1.0303 15.7006 0.608171 15.8138C0.170561 15.931 -0.089095 16.3808 0.028155 16.8184L0.490757 18.5449C0.608061 18.9825 1.05759 19.2422 1.49542 19.1249C1.93303 19.0076 2.19269 18.5578 2.07544 18.1202L2.05646 18.0493L3.95499 17.5406C4.39741 18.7921 5.06706 19.9369 5.91472 20.9251L4.52122 22.3186L4.46933 22.2667C4.14908 21.9464 3.6296 21.9463 3.30924 22.2667C2.98888 22.5871 2.98888 23.1065 3.30924 23.4268L4.57307 24.6906C4.89337 25.011 5.4128 25.011 5.73315 24.6906C6.05351 24.3703 6.05351 23.8509 5.73315 23.5306L5.68126 23.4787L7.07475 22.0852C8.06301 22.9329 9.20783 23.6026 10.4592 24.045L9.95055 25.9435L9.87967 25.9245C9.425 25.8027 8.9875 26.0846 8.87501 26.5045C8.75776 26.9421 9.01741 27.3919 9.45502 27.5092L11.1815 27.9718C11.6191 28.0891 12.0689 27.8293 12.1861 27.3918C12.3034 26.9542 12.0437 26.5044 11.6061 26.3871L11.5352 26.3681L12.0438 24.47C12.6781 24.5883 13.3318 24.6507 13.9999 24.6507C14.6679 24.6507 15.3216 24.5883 15.9559 24.47L16.4645 26.3681L16.3937 26.3871C15.9561 26.5044 15.6964 26.9542 15.8136 27.3918C15.9309 27.8293 16.3806 28.0891 16.8183 27.9718L18.5447 27.5092C18.9823 27.3919 19.242 26.9421 19.1248 26.5045C19.0123 26.0846 18.5748 25.8026 18.1201 25.9245L18.0492 25.9435L17.5405 24.045C18.7919 23.6025 19.9368 22.9329 20.925 22.0852L22.3185 23.4787L22.2666 23.5306C21.9462 23.8509 21.9462 24.3703 22.2666 24.6906C22.5869 25.011 23.1063 25.011 23.4267 24.6906L24.6905 23.4268C25.0109 23.1065 25.0109 22.5871 24.6905 22.2667C24.3702 21.9463 23.8507 21.9464 23.5304 22.2667L23.4785 22.3186L22.085 20.9251C22.9327 19.9369 23.6024 18.7921 24.0448 17.5406L25.9433 18.0493L25.9243 18.1202C25.8071 18.5578 26.0667 19.0076 26.5043 19.1249C26.9422 19.2422 27.3918 18.9825 27.509 18.5449L27.9716 16.8184C28.0891 16.3808 27.8295 15.931 27.3919 15.8137V15.8137ZM14 23.0102C9.03185 23.0102 4.9899 18.9682 4.9899 14C4.9899 9.03181 9.03185 4.98986 14 4.98986C18.9682 4.98986 23.0102 9.03181 23.0102 14C23.0102 18.9682 18.9682 23.0102 14 23.0102Z" fill="#4EA923"/>
<path d="M14.001 8.66986C14.454 8.66986 14.8213 8.30259 14.8213 7.84955C14.8213 7.3965 14.454 7.02924 14.001 7.02924C13.5479 7.02924 13.1807 7.3965 13.1807 7.84955C13.1807 8.30259 13.5479 8.66986 14.001 8.66986Z" fill="#4EA923"/>
<path d="M14.001 20.9709C14.454 20.9709 14.8213 20.6037 14.8213 20.1506C14.8213 19.6976 14.454 19.3303 14.001 19.3303C13.5479 19.3303 13.1807 19.6976 13.1807 20.1506C13.1807 20.6037 13.5479 20.9709 14.001 20.9709Z" fill="#4EA923"/>
<path d="M12.2437 16.5777C12.6967 16.5777 13.064 16.2104 13.064 15.7574C13.064 15.3043 12.6967 14.9371 12.2437 14.9371C11.7906 14.9371 11.4233 15.3043 11.4233 15.7574C11.4233 16.2104 11.7906 16.5777 12.2437 16.5777Z" fill="#4EA923"/>
<path d="M15.7583 16.5777C16.2113 16.5777 16.5786 16.2104 16.5786 15.7574C16.5786 15.3043 16.2113 14.9371 15.7583 14.9371C15.3053 14.9371 14.938 15.3043 14.938 15.7574C14.938 16.2104 15.3053 16.5777 15.7583 16.5777Z" fill="#4EA923"/>
<path d="M15.7583 13.0632C16.2113 13.0632 16.5786 12.6959 16.5786 12.2429C16.5786 11.7898 16.2113 11.4225 15.7583 11.4225C15.3053 11.4225 14.938 11.7898 14.938 12.2429C14.938 12.6959 15.3053 13.0632 15.7583 13.0632Z" fill="#4EA923"/>
<path d="M12.2437 13.0632C12.6967 13.0632 13.064 12.6959 13.064 12.2429C13.064 11.7898 12.6967 11.4225 12.2437 11.4225C11.7906 11.4225 11.4233 11.7898 11.4233 12.2429C11.4233 12.6959 11.7906 13.0632 12.2437 13.0632Z" fill="#4EA923"/>
<path d="M20.1514 14.8204C20.6044 14.8204 20.9717 14.4532 20.9717 14.0001C20.9717 13.5471 20.6044 13.1798 20.1514 13.1798C19.6983 13.1798 19.3311 13.5471 19.3311 14.0001C19.3311 14.4532 19.6983 14.8204 20.1514 14.8204Z" fill="#4EA923"/>
<path d="M7.8501 14.8204C8.30314 14.8204 8.67041 14.4532 8.67041 14.0001C8.67041 13.5471 8.30314 13.1798 7.8501 13.1798C7.39705 13.1798 7.02979 13.5471 7.02979 14.0001C7.02979 14.4532 7.39705 14.8204 7.8501 14.8204Z" fill="#4EA923"/>
<path d="M18.3496 10.4716C18.8027 10.4716 19.1699 10.1043 19.1699 9.65124C19.1699 9.1982 18.8027 8.83093 18.3496 8.83093C17.8966 8.83093 17.5293 9.1982 17.5293 9.65124C17.5293 10.1043 17.8966 10.4716 18.3496 10.4716Z" fill="#4EA923"/>
<path d="M9.65186 19.1697C10.1049 19.1697 10.4722 18.8024 10.4722 18.3494C10.4722 17.8963 10.1049 17.5291 9.65186 17.5291C9.19881 17.5291 8.83154 17.8963 8.83154 18.3494C8.83154 18.8024 9.19881 19.1697 9.65186 19.1697Z" fill="#4EA923"/>
<path d="M18.3496 19.1697C18.8027 19.1697 19.1699 18.8024 19.1699 18.3494C19.1699 17.8963 18.8027 17.5291 18.3496 17.5291C17.8966 17.5291 17.5293 17.8963 17.5293 18.3494C17.5293 18.8024 17.8966 19.1697 18.3496 19.1697Z" fill="#4EA923"/>
<path d="M9.65186 10.4716C10.1049 10.4716 10.4722 10.1043 10.4722 9.65124C10.4722 9.1982 10.1049 8.83093 9.65186 8.83093C9.19881 8.83093 8.83154 9.1982 8.83154 9.65124C8.83154 10.1043 9.19881 10.4716 9.65186 10.4716Z" fill="#4EA923"/>
</svg>
