<svg width="30" height="30" viewBox="0 0 30 30" fill="none" xmlns="http://www.w3.org/2000/svg">
<path d="M5.8367 26.8767C2.28639 24.1335 0 19.8337 0 15C0 6.71572 6.71572 0 15 0C23.2843 0 30 6.71572 30 15C30 19.3945 28.1103 23.3475 25.0992 26.091L5.8367 26.8767Z" fill="white"/>
<path d="M13.1864 26.5769L25.0991 26.091C28.1103 23.3475 30 19.3945 30 15C30 14.8817 29.9986 14.7639 29.9959 14.6463L26.1268 10.7771L26.0809 10.8411L20.1649 4.92514L11.0079 12.7133L7.56121 9.26664L4.8407 9.22188L9.56195 13.9431L9.24045 14.2166L7.17865 12.1548L3.60889 12.766L6.98113 16.1382L4.69352 18.0839L13.1864 26.5769Z" fill="#DCDCDC"/>
<path d="M15 24.4785C17.3076 24.4785 19.3107 23.1745 20.3124 21.2631L18.3607 20.834C17.8473 20.7212 17.4816 20.2662 17.4816 19.7406V15.9624H12.5183V19.7406C12.5183 20.2662 12.1526 20.7212 11.6392 20.834L9.6875 21.2631C10.6893 23.1745 12.6923 24.4785 15 24.4785Z" fill="#FAA68E"/>
<path d="M20.3123 21.2631L18.3606 20.8341C17.8472 20.7212 17.4814 20.2664 17.4814 19.7406V15.9625H15.0068V24.4785C17.3115 24.4757 19.3115 23.1725 20.3123 21.2631Z" fill="#E09380"/>
<path d="M9.67268 14.5426C10.806 14.5426 11.7247 13.6238 11.7247 12.4905C11.7247 11.3572 10.806 10.4384 9.67268 10.4384C8.53935 10.4384 7.62061 11.3572 7.62061 12.4905C7.62061 13.6238 8.53935 14.5426 9.67268 14.5426Z" fill="#FFBEAA"/>
<path d="M20.3275 14.5426C21.4608 14.5426 22.3795 13.6238 22.3795 12.4905C22.3795 11.3572 21.4608 10.4384 20.3275 10.4384C19.1941 10.4384 18.2754 11.3572 18.2754 12.4905C18.2754 13.6238 19.1941 14.5426 20.3275 14.5426Z" fill="#FAA68E"/>
<path d="M15.234 19.0511H14.7656C11.6628 19.0511 9.14746 16.5358 9.14746 13.4329V10.2441C9.14746 7.14126 11.6628 4.62595 14.7656 4.62595H15.234C18.3368 4.62595 20.8521 7.14126 20.8521 10.2441V13.4329C20.8521 16.5358 18.3368 19.0511 15.234 19.0511Z" fill="#FFCDBE"/>
<path d="M15.2339 4.62595H15.0068V19.0511H15.2339C18.3368 19.0511 20.8521 16.5358 20.8521 13.4329V10.2441C20.8521 7.14126 18.3368 4.62595 15.2339 4.62595Z" fill="#FFBEAA"/>
<path d="M12.9765 8.72375C12.9765 8.72375 16.7943 12.2969 21.6049 12.4905V8.73793C21.6049 5.35936 18.6478 2.62045 14.9999 2.62045C11.3521 2.62045 8.39502 5.35936 8.39502 8.73793V12.4905C8.39502 12.4905 10.6094 11.1283 12.9765 8.72375Z" fill="#555A66"/>
<path d="M21.6047 8.73791C21.6047 5.3615 18.6514 2.62406 15.0068 2.62054V10.2408C16.5822 11.24 18.941 12.3833 21.6047 12.4905V8.73791Z" fill="#333940"/>
<path d="M15.0002 30C18.4507 30 21.6291 28.8349 24.1635 26.8767L23.887 23.7496C23.7957 22.7174 23.0451 21.8638 22.033 21.6414L19.0887 20.9941C18.4482 22.6259 16.8591 23.7811 15.0002 23.7811C13.1412 23.7811 11.5521 22.6259 10.9117 20.9941L7.96732 21.6414C6.95523 21.8638 6.20465 22.7174 6.11342 23.7496L5.83691 26.8767C8.37121 28.8349 11.5496 30 15.0002 30Z" fill="#57C3C1"/>
<path d="M23.8866 23.7496C23.7953 22.7174 23.0447 21.8638 22.0326 21.6414L19.0883 20.9941C18.4486 22.6237 16.8627 23.7781 15.0068 23.781V30C18.4547 29.9984 21.6304 28.8336 24.1631 26.8768L23.8866 23.7496Z" fill="#57C3C1"/>
<path d="M14.9998 24.5446C13.9943 24.5446 13.0277 24.2425 12.2044 23.6707C11.4009 23.1128 10.7879 22.3381 10.4316 21.4305C10.2542 20.9787 10.4768 20.4686 10.9286 20.2913C11.3805 20.1139 11.8905 20.3364 12.0678 20.7882C12.5443 22.0023 13.6952 22.7868 14.9997 22.7868C16.3042 22.7868 17.455 22.0023 17.9316 20.7882C18.1089 20.3364 18.6189 20.1138 19.0708 20.2913C19.5227 20.4686 19.7451 20.9787 19.5678 21.4305C19.2115 22.3381 18.5985 23.1128 17.795 23.6707C16.9718 24.2425 16.0052 24.5446 14.9998 24.5446Z" fill="white"/>
<path d="M19.0709 20.2913C18.619 20.1139 18.109 20.3364 17.9317 20.7883C17.456 22.0001 16.3084 22.7838 15.0068 22.7867V24.5445C16.0097 24.5431 16.9738 24.2411 17.7952 23.6707C18.5987 23.1128 19.2117 22.3381 19.568 21.4305C19.7453 20.9787 19.5228 20.4686 19.0709 20.2913Z" fill="#E9EDF5"/>
<path d="M9.54519 19.2215L5.8962 18.7067C4.77665 18.5488 3.99718 17.5132 4.15509 16.3937C4.313 15.2741 5.34859 14.4946 6.46814 14.6526L10.1171 15.1673L9.54519 19.2215Z" fill="#FFCDBE"/>
<path d="M21.2556 28.6373C22.6684 27.9882 23.963 27.126 25.0982 26.0918L26.193 20.9624C26.3681 20.1422 26.2661 19.2811 25.8729 18.5403C25.2967 17.4549 24.2168 16.6697 22.9225 16.5116L7.98088 14.5077L7.46045 19.3452L21.6048 21.8874L21.2556 28.6373Z" fill="#57C3C1"/>
<path d="M25.8728 18.5404C25.2966 17.455 24.2167 16.6697 22.9224 16.5117L15.0068 15.4501V20.7016L21.6047 21.8875L21.2554 28.6373C22.6682 27.9881 23.9628 27.1259 25.098 26.0918L26.1929 20.9623C26.368 20.1423 26.266 19.281 25.8728 18.5404Z" fill="#57C3C1"/>
<path d="M25.4883 15.5273H22.8101C22.3247 15.5273 21.9312 15.1338 21.9312 14.6484C21.9312 14.163 22.3247 13.7695 22.8101 13.7695H25.4883C25.9737 13.7695 26.3672 14.163 26.3672 14.6484C26.3672 15.1338 25.9737 15.5273 25.4883 15.5273Z" fill="black"/>
<path d="M23.7251 12.5354C23.2995 12.5354 22.9256 12.2256 22.8578 11.792C22.7829 11.3124 23.1109 10.8629 23.5905 10.788L25.3525 10.5128C25.8323 10.4379 26.2816 10.7659 26.3566 11.2455C26.4315 11.7251 26.1034 12.1746 25.6239 12.2495L23.8619 12.5247C23.8159 12.5319 23.7702 12.5354 23.7251 12.5354Z" fill="black"/>
<path d="M6.37507 13.3879C6.32298 13.3879 6.27013 13.3832 6.21711 13.3736L4.04093 12.9785C3.56334 12.8919 3.24646 12.4344 3.33312 11.9568C3.41984 11.4792 3.87728 11.1623 4.35488 11.249L6.53105 11.644C7.00865 11.7307 7.32552 12.1882 7.23886 12.6658C7.16175 13.0903 6.79179 13.3879 6.37507 13.3879Z" fill="black"/>
<path d="M6.99296 10.8165C6.79233 10.8165 6.59071 10.7482 6.4256 10.6085L5.00452 9.40584C4.63398 9.09225 4.5878 8.53772 4.9014 8.16717C5.21499 7.79657 5.76958 7.75045 6.14007 8.06405L7.56114 9.26668C7.93169 9.58028 7.97786 10.1348 7.66427 10.5054C7.49042 10.7107 7.24245 10.8165 6.99296 10.8165Z" fill="black"/>
</svg>
